<svg width="143" height="44" viewBox="0 0 143 44" fill="none" xmlns="http://www.w3.org/2000/svg">
<path d="M8.99497 0.51626L8.9931 0.516287C8.21433 0.524719 7.43745 0.587764 6.66923 0.704848C5.92511 0.821014 5.20517 1.03974 4.53375 1.35307C3.86457 1.66859 3.25473 2.07773 2.7258 2.56474L2.72432 2.5661L2.72432 2.5661C2.19347 3.05095 1.7526 3.60987 1.41748 4.22063L1.417 4.2215C1.07956 4.83358 0.846255 5.4882 0.72427 6.16273L0.724102 6.16366C0.596072 6.86405 0.5272 7.5724 0.518063 8.28238L0.517934 8.29238L0.517834 8.29238C0.510463 8.51657 0.507622 8.73768 0.504711 8.96431C0.503323 9.07238 0.501919 9.1817 0.5 9.2932V34.7102C0.501893 34.8215 0.503285 34.9296 0.504657 35.0361C0.507587 35.2636 0.510424 35.4838 0.517841 35.7124L0.518159 35.7221L0.518063 35.7221C0.527203 36.4321 0.596075 37.1404 0.7241 37.8407L0.724323 37.842C0.84595 38.5168 1.07923 39.1717 1.41694 39.7839L1.4172 39.7843C1.75195 40.3927 2.19262 40.9491 2.72326 41.431L2.72732 41.4346L2.7273 41.4347C3.25343 41.9231 3.86283 42.3319 4.53284 42.6446L4.53339 42.6448C5.20492 42.9591 5.9249 43.1793 6.66924 43.2974C7.43781 43.4135 8.21482 43.4766 8.99375 43.4861L8.99781 43.4861C9.3644 43.4936 9.72392 43.4978 10.0858 43.4978H10.0884C10.5239 43.5 10.9557 43.5 11.3941 43.5H131.612C132.042 43.5 132.477 43.5 132.905 43.4978L132.908 43.4978C133.268 43.4978 133.638 43.4936 133.999 43.4861L134.004 43.486C134.781 43.4771 135.556 43.4141 136.322 43.2975C137.07 43.1786 137.793 42.9584 138.468 42.6447C139.138 42.3319 139.746 41.923 140.272 41.4348L140.275 41.432C140.805 40.948 141.247 40.3917 141.586 39.7843C141.921 39.1719 142.152 38.5173 142.272 37.8432L142.272 37.8406C142.401 37.1394 142.472 36.4306 142.486 35.7198C142.486 35.7195 142.486 35.7192 142.486 35.7188L142.986 35.7286L8.99497 0.51626ZM8.99497 0.51626C9.07237 0.515133 9.14926 0.513965 9.22576 0.512804C9.51626 0.508393 9.80129 0.504065 10.0886 0.502336L8.99497 0.51626ZM132.112 0.500143V0.500127L11.3941 0.500143H131.612H132.112ZM142.272 6.16374C142.401 6.8649 142.472 7.57377 142.486 8.2845L132.905 0.502193C133.2 0.50393 133.5 0.508501 133.799 0.513053C133.867 0.514082 133.935 0.51511 134.002 0.51611L134.004 0.516133C134.782 0.524083 135.557 0.587156 136.323 0.704769C137.07 0.821834 137.793 1.04055 138.468 1.35316C139.815 1.99033 140.903 2.99622 141.587 4.22283C141.921 4.8346 142.152 5.48827 142.272 6.16148L142.272 6.16374ZM8.98769 0.0164424L8.98769 0.0163129L8.98769 0.0164424Z" stroke="white"/>
<path d="M27.4145 22.3306C27.4264 21.4124 27.6717 20.5122 28.1278 19.7137C28.5838 18.9151 29.2357 18.2442 30.0227 17.7633C29.5227 17.0536 28.8631 16.4696 28.0963 16.0576C27.3295 15.6456 26.4765 15.4169 25.6053 15.3898C23.7467 15.196 21.9448 16.4952 20.9977 16.4952C20.0323 16.4952 18.5741 15.4091 17.0038 15.4412C15.9881 15.4738 14.9982 15.7674 14.1306 16.2932C13.263 16.8191 12.5473 17.5593 12.0531 18.4419C9.91254 22.1251 11.5092 27.5383 13.5597 30.5155C14.5856 31.9734 15.7846 33.6019 17.3534 33.5442C18.8887 33.4809 19.462 32.5712 21.3152 32.5712C23.1511 32.5712 23.689 33.5442 25.2897 33.5075C26.9371 33.4809 27.975 32.0431 28.9649 30.5714C29.702 29.5326 30.2692 28.3845 30.6455 27.1696C29.6884 26.7673 28.8717 26.0939 28.2971 25.2334C27.7226 24.3729 27.4156 23.3633 27.4145 22.3306V22.3306Z" fill="white"/>
<path d="M24.3907 13.4325C25.2889 12.3608 25.7314 10.9834 25.6243 9.59277C24.252 9.73602 22.9844 10.3878 22.0741 11.4183C21.629 11.9218 21.2881 12.5075 21.0709 13.1419C20.8537 13.7764 20.7644 14.4471 20.8082 15.1159C21.4946 15.1229 22.1736 14.975 22.7942 14.6834C23.4147 14.3919 23.9606 13.9641 24.3907 13.4325Z" fill="white"/>
<path d="M46.8206 29.8534H41.5817L40.3235 33.5455H38.1045L43.0668 19.8857H45.3723L50.3345 33.5455H48.0777L46.8206 29.8534ZM42.1242 28.1497H46.277L44.2298 22.1577H44.1725L42.1242 28.1497Z" fill="white"/>
<path d="M61.0511 28.5666C61.0511 31.6614 59.3844 33.6498 56.8692 33.6498C56.2321 33.6829 55.5984 33.5371 55.0408 33.2289C54.4832 32.9207 54.0242 32.4628 53.7163 31.9074H53.6687V36.8402H51.6118V23.5865H53.6028V25.243H53.6406C53.9627 24.6902 54.4294 24.2346 54.9913 23.9246C55.5532 23.6146 56.1891 23.4617 56.8314 23.4823C59.3746 23.4823 61.0511 25.4804 61.0511 28.5666ZM58.9369 28.5666C58.9369 26.5503 57.8884 25.2247 56.2888 25.2247C54.7172 25.2247 53.6601 26.5782 53.6601 28.5666C53.6601 30.5732 54.7172 31.9171 56.2888 31.9171C57.8885 31.9171 58.9369 30.6012 58.9369 28.5666Z" fill="white"/>
<path d="M72.0809 28.5666C72.0809 31.6614 70.4142 33.6498 67.899 33.6498C67.2618 33.6829 66.6282 33.537 66.0706 33.2289C65.513 32.9207 65.054 32.4628 64.7461 31.9074H64.6985V36.8402H62.6416V23.5865H64.6326V25.2429H64.6704C64.9924 24.6902 65.4592 24.2346 66.021 23.9246C66.5829 23.6146 67.2188 23.4617 67.8611 23.4823C70.4044 23.4823 72.0809 25.4803 72.0809 28.5666ZM69.9667 28.5666C69.9667 26.5503 68.9182 25.2247 67.3186 25.2247C65.747 25.2247 64.6899 26.5782 64.6899 28.5666C64.6899 30.5732 65.747 31.9171 67.3186 31.9171C68.9182 31.9171 69.9667 30.6012 69.9667 28.5666H69.9667Z" fill="white"/>
<path d="M79.3697 29.7398C79.5221 31.0944 80.8462 31.9838 82.6556 31.9838C84.3893 31.9838 85.6366 31.0944 85.6366 29.873C85.6366 28.8127 84.8843 28.1779 83.1031 27.7428L81.3218 27.3163C78.798 26.7105 77.6263 25.5374 77.6263 23.6339C77.6263 21.2771 79.6929 19.6582 82.6275 19.6582C85.5317 19.6582 87.5227 21.2771 87.5898 23.6339H85.5134C85.3891 22.2707 84.2552 21.4479 82.5983 21.4479C80.9413 21.4479 79.8075 22.2804 79.8075 23.4921C79.8075 24.4578 80.5316 25.0261 82.3032 25.4611L83.8175 25.8306C86.6375 26.4934 87.8091 27.6192 87.8091 29.6172C87.8091 32.1728 85.7609 33.7734 82.5031 33.7734C79.4551 33.7734 77.3971 32.2104 77.2642 29.7397L79.3697 29.7398Z" fill="white"/>
<path d="M92.2487 21.2305V23.5873H94.1543V25.2062H92.2487V30.6965C92.2487 31.5494 92.6303 31.9469 93.4679 31.9469C93.6942 31.943 93.92 31.9272 94.1446 31.8996V33.5088C93.768 33.5787 93.3852 33.6104 93.0021 33.6033C90.9733 33.6033 90.1821 32.846 90.1821 30.9145V25.2062H88.7251V23.5873H90.1821V21.2305H92.2487Z" fill="white"/>
<path d="M95.2578 28.5674C95.2578 25.4339 97.1147 23.4648 100.01 23.4648C102.916 23.4648 104.764 25.4338 104.764 28.5674C104.764 31.7095 102.926 33.6699 100.01 33.6699C97.0963 33.6699 95.2578 31.7095 95.2578 28.5674ZM102.668 28.5674C102.668 26.4179 101.677 25.1492 100.01 25.1492C98.3437 25.1492 97.3536 26.4275 97.3536 28.5674C97.3536 30.7255 98.3437 31.9845 100.01 31.9845C101.677 31.9845 102.668 30.7255 102.668 28.5674H102.668Z" fill="white"/>
<path d="M106.46 23.5864H108.422V25.2815H108.469C108.602 24.7521 108.914 24.2842 109.353 23.9566C109.792 23.6289 110.331 23.4614 110.88 23.4822C111.117 23.4814 111.353 23.507 111.584 23.5585V25.4706C111.285 25.3797 110.973 25.338 110.66 25.3471C110.361 25.335 110.064 25.3874 109.787 25.5005C109.51 25.6137 109.262 25.785 109.058 26.0027C108.855 26.2204 108.701 26.4793 108.607 26.7616C108.514 27.044 108.483 27.343 108.517 27.6384V33.5455H106.46L106.46 23.5864Z" fill="white"/>
<path d="M121.068 30.6213C120.791 32.4292 119.019 33.6699 116.753 33.6699C113.838 33.6699 112.028 31.7288 112.028 28.6146C112.028 25.4908 113.847 23.4648 116.666 23.4648C119.439 23.4648 121.182 25.3576 121.182 28.3772V29.0776H114.105V29.2012C114.072 29.5677 114.118 29.9369 114.24 30.2843C114.362 30.6318 114.557 30.9494 114.812 31.2162C115.067 31.483 115.376 31.6929 115.719 31.8318C116.062 31.9707 116.43 32.0356 116.8 32.0221C117.286 32.0673 117.774 31.9554 118.191 31.7031C118.608 31.4507 118.932 31.0713 119.114 30.6213L121.068 30.6213ZM114.114 27.6489H119.124C119.143 27.3194 119.092 26.9896 118.977 26.6802C118.861 26.3709 118.682 26.0887 118.451 25.8514C118.22 25.614 117.942 25.4267 117.635 25.301C117.328 25.1754 116.998 25.1142 116.666 25.1213C116.331 25.1193 115.999 25.1833 115.689 25.3095C115.379 25.4357 115.098 25.6217 114.86 25.8567C114.623 26.0917 114.435 26.371 114.307 26.6786C114.179 26.9863 114.114 27.316 114.114 27.6489V27.6489Z" fill="white"/>
<path d="M42.0938 13.0391C42.8789 13.0391 43.2734 12.5547 43.7539 11.4414L45.5234 7.36328H44.9648L43.3906 11.1328H43.3438L41.707 7.36328H41.1328L43.0898 11.7344C42.8359 12.2422 42.5547 12.543 42.0938 12.543C41.9609 12.543 41.8555 12.5234 41.8008 12.5078V12.9922C41.8438 13.0117 41.9531 13.0391 42.0938 13.0391ZM49.2322 10.2227C49.1306 9.49609 48.5173 8.87109 47.5603 8.87109C46.4548 8.87109 45.7244 9.6875 45.7244 10.9688C45.7244 12.2695 46.4548 13.0664 47.5642 13.0664C48.4627 13.0664 49.1228 12.5195 49.2361 11.7422H48.7244C48.6072 12.2695 48.1814 12.6094 47.5681 12.6094C46.7752 12.6094 46.2517 11.9883 46.2517 10.9688C46.2517 9.96484 46.7712 9.32812 47.5642 9.32812C48.2048 9.32812 48.615 9.72266 48.7244 10.2227H49.2322ZM53.0191 8.9375H49.7417V9.36719H51.1206V13H51.6362V9.36719H53.0191V8.9375ZM54.8606 13.0664C55.4661 13.0664 56.0208 12.7305 56.2473 12.2266H56.2591V13H56.7513V10.2188C56.7513 9.39062 56.1692 8.87109 55.2434 8.87109C54.3177 8.87109 53.72 9.38672 53.6614 10.1133H54.1614C54.2513 9.62109 54.6341 9.32812 55.2317 9.32812C55.8645 9.32812 56.2356 9.67969 56.2356 10.2656V10.6172L54.97 10.6953C54.0325 10.7578 53.513 11.1797 53.513 11.875C53.513 12.5859 54.0598 13.0664 54.8606 13.0664ZM54.9661 12.6211C54.4153 12.6211 54.0364 12.3164 54.0364 11.875C54.0364 11.4258 54.3919 11.1484 55.0325 11.1055L56.2356 11.0234V11.4727C56.2356 12.1172 55.677 12.6211 54.9661 12.6211ZM60.6748 13H61.1905V8.9375H60.6748V10.6797H58.4522V8.9375H57.9327V13H58.4522V11.1094H60.6748V13ZM64.0516 13.0664C65.157 13.0664 65.9031 12.2578 65.9031 10.9688C65.9031 9.67578 65.157 8.87109 64.0516 8.87109C62.95 8.87109 62.2 9.67578 62.2 10.9688C62.2 12.2578 62.9461 13.0664 64.0516 13.0664ZM64.0516 12.6094C63.2547 12.6094 62.7273 12 62.7273 10.9688C62.7273 9.9375 63.2547 9.32812 64.0516 9.32812C64.8484 9.32812 65.3797 9.9375 65.3797 10.9688C65.3797 12 64.8484 12.6094 64.0516 12.6094ZM68.565 13C69.44 13 69.9673 12.5742 69.9673 11.8477C69.9673 11.3164 69.5845 10.9648 69.0611 10.9023V10.8789C69.4752 10.7969 69.772 10.4141 69.772 9.96875C69.772 9.33203 69.3072 8.9375 68.5455 8.9375H66.9048V13H68.565ZM67.4244 9.36328H68.4791C68.9791 9.36328 69.2603 9.60156 69.2603 10.0156C69.2603 10.457 68.9595 10.7031 68.4009 10.7031H67.4244V9.36328ZM67.4244 11.1289H68.44C69.0923 11.1289 69.4556 11.3633 69.4556 11.8359C69.4556 12.3203 69.1314 12.5742 68.5377 12.5742H67.4244V11.1289ZM71.4925 13L73.7503 9.73828H73.7738V13H74.2933V8.9375H73.7816L71.5238 12.2031H71.5003V8.9375H70.9808V13H71.4925ZM78.4434 8.9375H75.1661V9.36719H76.545V13H77.0606V9.36719H78.4434V8.9375ZM79.3202 13H80.7147C81.6092 13 82.1873 12.4805 82.1873 11.6562C82.1873 10.832 81.6092 10.3164 80.7147 10.3164H79.8397V8.9375H79.3202V13ZM80.7069 10.7461C81.2928 10.7461 81.6756 11.1055 81.6756 11.6562C81.6756 12.207 81.2967 12.5703 80.7069 12.5703H79.8397V10.7461H80.7069ZM88.3666 10.2227C88.265 9.49609 87.6517 8.87109 86.6947 8.87109C85.5892 8.87109 84.8587 9.6875 84.8587 10.9688C84.8587 12.2695 85.5892 13.0664 86.6986 13.0664C87.597 13.0664 88.2572 12.5195 88.3705 11.7422H87.8587C87.7416 12.2695 87.3158 12.6094 86.7025 12.6094C85.9095 12.6094 85.3861 11.9883 85.3861 10.9688C85.3861 9.96484 85.9056 9.32812 86.6986 9.32812C87.3392 9.32812 87.7494 9.72266 87.8587 10.2227H88.3666Z" fill="white"/>
</svg>
