<svg width="18" height="21" viewBox="0 0 18 21" fill="none" xmlns="http://www.w3.org/2000/svg">
<path d="M14.393 11.1611C14.4032 10.3733 14.6137 9.60085 15.0051 8.91562C15.3964 8.23039 15.9557 7.65468 16.6311 7.24203C16.2021 6.63307 15.6361 6.13191 14.9781 5.77837C14.3201 5.42484 13.5882 5.22865 12.8405 5.2054C11.2457 5.03903 9.69955 6.15386 8.88685 6.15386C8.05842 6.15386 6.80713 5.22192 5.45971 5.24947C4.58815 5.27746 3.73876 5.52934 2.99428 5.98058C2.24979 6.43182 1.63562 7.06702 1.21159 7.8243C-0.625208 10.9849 0.744878 15.6298 2.50438 18.1846C3.38469 19.4356 4.41353 20.833 5.75974 20.7834C7.07709 20.7291 7.56909 19.9486 9.15924 19.9486C10.7346 19.9486 11.1962 20.7834 12.5698 20.7519C13.9833 20.7291 14.874 19.4953 15.7234 18.2325C16.3559 17.3411 16.8426 16.356 17.1655 15.3135C16.3442 14.9683 15.6434 14.3905 15.1504 13.6521C14.6573 12.9136 14.3939 12.0473 14.393 11.1611Z" fill="#07152A"/>
<path d="M11.7982 3.52623C12.569 2.60668 12.9487 1.42475 12.8567 0.231445C11.6792 0.35436 10.5915 0.913674 9.81037 1.79795C9.42844 2.22993 9.13592 2.7325 8.94954 3.27691C8.76315 3.82132 8.68656 4.3969 8.72414 4.97075C9.31311 4.97678 9.89578 4.84991 10.4283 4.59969C10.9607 4.34947 11.4292 3.98244 11.7982 3.52623Z" fill="#07152A"/>
</svg>
