<svg width="15" height="16" viewBox="0 0 15 16" fill="none" xmlns="http://www.w3.org/2000/svg">
<path fill-rule="evenodd" clip-rule="evenodd" d="M0.589299 7.45135C0.256503 7.488 0 7.7196 0 7.99984C0 8.30555 0.30526 8.55339 0.681818 8.55339L13.25 8.55339L10.0029 12.0542L9.95325 12.1162C9.8043 12.3326 9.82022 12.6401 10.0014 12.8371C10.2007 13.0537 10.5245 13.0544 10.7246 12.8387L14.8496 8.39186L14.8993 8.32969C15.0486 8.11265 15.032 7.80406 14.8495 7.60737L10.7245 3.16129L10.6671 3.10782C10.4666 2.9475 10.1825 2.96603 10.0014 3.16297C9.80209 3.37961 9.80279 3.7301 10.0029 3.9458L13.2506 7.44629L0.681818 7.44629L0.589299 7.45135Z" fill="#DBF1FF"/>
</svg>
