<svg width="15" height="11" viewBox="0 0 15 11" fill="none" xmlns="http://www.w3.org/2000/svg">
<path fill-rule="evenodd" clip-rule="evenodd" d="M7.93294 0.195193C8.07845 0.0702112 8.27577 0 8.48152 0C8.68727 0 8.8846 0.0702112 9.03011 0.195193L14.4617 4.86192C14.6071 4.98694 14.6888 5.15648 14.6888 5.33325C14.6888 5.51003 14.6071 5.67957 14.4617 5.80459L9.03011 10.4713C8.88377 10.5928 8.68776 10.66 8.48432 10.6584C8.28087 10.6569 8.08625 10.5868 7.94239 10.4632C7.79852 10.3396 7.71692 10.1724 7.71515 9.99758C7.71338 9.82278 7.79159 9.65437 7.93294 9.52864L12.04 5.99993H1.4981C1.29231 5.99993 1.09495 5.92969 0.949434 5.80466C0.803918 5.67964 0.722168 5.51007 0.722168 5.33325C0.722168 5.15644 0.803918 4.98687 0.949434 4.86184C1.09495 4.73682 1.29231 4.66658 1.4981 4.66658H12.04L7.93294 1.13787C7.78747 1.01285 7.70575 0.84331 7.70575 0.666532C7.70575 0.489754 7.78747 0.320213 7.93294 0.195193Z" fill="#0962E8"/>
</svg>
