<svg width="14" height="11" viewBox="0 0 14 11" fill="none" xmlns="http://www.w3.org/2000/svg">
<path fill-rule="evenodd" clip-rule="evenodd" d="M6.75603 10.4635C6.61052 10.5885 6.41319 10.6587 6.20744 10.6587C6.00169 10.6587 5.80436 10.5885 5.65885 10.4635L0.227304 5.79678C0.0818386 5.67176 0.00012162 5.50222 0.000121604 5.32544C0.000121589 5.14866 0.0818385 4.97912 0.227304 4.8541L5.65885 0.187377C5.8052 0.0659366 6.0012 -0.00126078 6.20465 0.000258171C6.40809 0.00177712 6.60271 0.0718913 6.74657 0.195498C6.89044 0.319105 6.97204 0.486315 6.97381 0.661115C6.97558 0.835915 6.89737 1.00432 6.75603 1.13006L2.649 4.65876L13.1909 4.65876C13.3967 4.65876 13.594 4.729 13.7395 4.85403C13.885 4.97905 13.9668 5.14862 13.9668 5.32544C13.9668 5.50225 13.885 5.67182 13.7395 5.79685C13.594 5.92187 13.3967 5.99211 13.1909 5.99211L2.649 5.99211L6.75603 9.52082C6.90149 9.64584 6.98321 9.81538 6.98321 9.99216C6.98321 10.1689 6.90149 10.3385 6.75603 10.4635V10.4635Z" fill="#47646D"/>
</svg>
