<svg width="10" height="9" viewBox="0 0 10 9" fill="none" xmlns="http://www.w3.org/2000/svg">
<path fill-rule="evenodd" clip-rule="evenodd" d="M5.16284 0.155326C5.26702 0.0558709 5.40831 0 5.55562 0C5.70294 0 5.84422 0.0558709 5.9484 0.155326L9.83734 3.86889C9.94149 3.96838 10 4.10329 10 4.24396C10 4.38464 9.94149 4.51955 9.83734 4.61903L5.9484 8.3326C5.84362 8.42924 5.70329 8.48271 5.55762 8.4815C5.41195 8.48029 5.27261 8.4245 5.16961 8.32614C5.0666 8.22778 5.00817 8.09472 5.00691 7.95562C5.00564 7.81652 5.06164 7.68252 5.16284 7.58246L8.10343 4.77447H0.555562C0.408218 4.77447 0.266908 4.71858 0.16272 4.61909C0.0585322 4.5196 0 4.38466 0 4.24396C0 4.10326 0.0585322 3.96833 0.16272 3.86884C0.266908 3.76935 0.408218 3.71345 0.555562 3.71345H8.10343L5.16284 0.905467C5.05869 0.805981 5.00018 0.671068 5.00018 0.530396C5.00018 0.389724 5.05869 0.254811 5.16284 0.155326Z" fill="#93A2BA"/>
</svg>
