<svg width="143" height="44" viewBox="0 0 143 44" fill="none" xmlns="http://www.w3.org/2000/svg">
<path d="M137.704 2.38419e-07H5.2963C2.38333 2.38419e-07 0 2.475 0 5.5V38.5C0 41.525 2.38333 44 5.2963 44H137.704C140.617 44 143 41.525 143 38.5V5.5C143 2.475 140.617 2.38419e-07 137.704 2.38419e-07ZM137.704 0.88C140.157 0.88 142.153 2.95284 142.153 5.5V38.5C142.153 41.0476 140.157 43.1204 137.704 43.1204H5.2963C2.84348 43.1204 0.847407 41.0476 0.847407 38.5V5.5C0.847407 2.95284 2.84348 0.88 5.2963 0.88H137.704Z" fill="white"/>
<path d="M109.852 31.3033H111.684V19.3518H109.852V31.3033ZM126.353 23.657L124.253 28.8385H124.19L122.011 23.657H120.037L123.306 30.8991L121.442 34.9275H123.354L128.39 23.657H126.353ZM115.964 29.9458C115.363 29.9458 114.527 29.6537 114.527 28.9308C114.527 28.0083 115.569 27.6547 116.469 27.6547C117.275 27.6547 117.653 27.8238 118.142 28.0547C118 29.1616 117.021 29.9458 115.964 29.9458V29.9458ZM116.185 23.3955C114.858 23.3955 113.485 23.9646 112.916 25.2254L114.542 25.8864C114.89 25.2254 115.537 25.01 116.216 25.01C117.164 25.01 118.127 25.5638 118.142 26.5478V26.6707C117.811 26.4862 117.101 26.2095 116.232 26.2095C114.479 26.2095 112.695 27.1471 112.695 28.9001C112.695 30.4992 114.132 31.5296 115.742 31.5296C116.974 31.5296 117.653 30.9914 118.08 30.3611H118.142V31.2835H119.911V26.7013C119.911 24.5798 118.285 23.3955 116.185 23.3955V23.3955ZM104.863 25.1119H102.257V21.0152H104.863C106.232 21.0152 107.01 22.1194 107.01 23.0635C107.01 23.9897 106.232 25.1119 104.863 25.1119ZM104.816 19.3518H100.426V31.3033H102.257V26.7753H104.816C106.846 26.7753 108.842 25.3438 108.842 23.0635C108.842 20.7833 106.846 19.3518 104.816 19.3518ZM80.8788 29.948C79.6131 29.948 78.5535 28.9162 78.5535 27.499C78.5535 26.0668 79.6131 25.0193 80.8788 25.0193C82.1283 25.0193 83.1089 26.0668 83.1089 27.499C83.1089 28.9162 82.1283 29.948 80.8788 29.948V29.948ZM82.9823 24.3262H82.919C82.5079 23.8489 81.7167 23.4176 80.7204 23.4176C78.6325 23.4176 76.7188 25.2041 76.7188 27.499C76.7188 29.7785 78.6325 31.5497 80.7204 31.5497C81.7167 31.5497 82.5079 31.1184 82.919 30.6258H82.9823V31.211C82.9823 32.7668 82.1283 33.5985 80.7522 33.5985C79.6292 33.5985 78.9332 32.8127 78.6482 32.1506L77.051 32.7974C77.5097 33.8755 78.7277 35.2002 80.7522 35.2002C82.9033 35.2002 84.7223 33.9678 84.7223 30.9645V23.6641H82.9823V24.3262ZM85.9875 31.3033H87.8223V19.3515H85.9875V31.3033ZM90.5271 27.3604C90.4796 25.7893 91.7766 24.9886 92.7097 24.9886C93.4378 24.9886 94.0543 25.3427 94.2595 25.8514L90.5271 27.3604ZM96.2212 26.0052C95.8736 25.0962 94.8133 23.4176 92.6464 23.4176C90.4953 23.4176 88.7081 25.0656 88.7081 27.4837C88.7081 29.7632 90.4796 31.5497 92.8519 31.5497C94.7661 31.5497 95.8736 30.41 96.3321 29.7478L94.9085 28.8235C94.4343 29.5013 93.7853 29.948 92.8519 29.948C91.9189 29.948 91.2547 29.532 90.8274 28.716L96.4106 26.4671L96.2212 26.0052ZM51.7381 24.6652V26.3902H55.977C55.8505 27.3604 55.5183 28.0688 55.0121 28.5618C54.3954 29.1626 53.4305 29.8248 51.7381 29.8248C49.1283 29.8248 47.088 27.7764 47.088 25.2351C47.088 22.6938 49.1283 20.6451 51.7381 20.6451C53.1459 20.6451 54.1738 21.1843 54.9331 21.8775L56.1826 20.6608C55.1229 19.6749 53.7151 18.9202 51.7381 18.9202C48.1634 18.9202 45.1582 21.7542 45.1582 25.2351C45.1582 28.716 48.1634 31.5497 51.7381 31.5497C53.6679 31.5497 55.123 30.9339 56.2616 29.7785C57.4321 28.6387 57.7961 27.037 57.7961 25.7434C57.7961 25.3427 57.7645 24.9733 57.7009 24.6652H51.7381ZM62.6153 29.948C61.3496 29.948 60.2582 28.9315 60.2582 27.4837C60.2582 26.0205 61.3496 25.0193 62.6153 25.0193C63.8804 25.0193 64.9718 26.0205 64.9718 27.4837C64.9718 28.9315 63.8804 29.948 62.6153 29.948V29.948ZM62.6153 23.4176C60.3057 23.4176 58.4234 25.1272 58.4234 27.4837C58.4234 29.8248 60.3057 31.5497 62.6153 31.5497C64.9243 31.5497 66.8066 29.8248 66.8066 27.4837C66.8066 25.1272 64.9243 23.4176 62.6153 23.4176ZM71.7588 29.948C70.4937 29.948 69.4022 28.9315 69.4022 27.4837C69.4022 26.0205 70.4937 25.0193 71.7588 25.0193C73.0241 25.0193 74.1155 26.0205 74.1155 27.4837C74.1155 28.9315 73.0241 29.948 71.7588 29.948ZM71.7588 23.4176C69.4494 23.4176 67.5675 25.1272 67.5675 27.4837C67.5675 29.8248 69.4494 31.5497 71.7588 31.5497C74.068 31.5497 75.9503 29.8248 75.9503 27.4837C75.9503 25.1272 74.068 23.4176 71.7588 23.4176Z" fill="white"/>
<path d="M11.6848 35.5605L11.6029 35.4827C11.2825 35.1457 11.0933 34.6224 11.0933 33.9448V34.1043V9.8977C11.0933 9.89551 11.0933 9.89387 11.0933 9.89212C11.0933 9.8942 11.0933 9.89595 11.0933 9.89814V10.058C11.0933 9.32428 11.3139 8.77154 11.6835 8.44012L25.3284 22.0008L11.6848 35.5605ZM11.0933 9.89081C11.0933 9.8305 11.0949 9.77194 11.098 9.71426C11.0949 9.7715 11.0933 9.8305 11.0933 9.89081ZM11.098 9.71163C11.098 9.71087 11.098 9.70999 11.0983 9.70912C11.098 9.70999 11.098 9.71087 11.098 9.71163ZM11.0983 9.70397C11.0983 9.70353 11.0983 9.7031 11.0983 9.70266C11.0983 9.7031 11.0983 9.70353 11.0983 9.70397Z" fill="url(#paint0_linear_10845_7354)"/>
<path d="M29.8762 26.6826L29.98 26.6241L35.3685 23.5812C35.8823 23.2909 36.2247 22.939 36.3955 22.5666C36.2251 22.939 35.8826 23.2913 35.3685 23.5816L29.98 26.6245L29.8762 26.6826V26.6826ZM29.8776 26.5223L25.3286 22.0006L29.8771 17.4796L35.3685 20.5802C36.0659 20.974 36.4574 21.4815 36.5228 22.0001C36.5228 22.0006 36.5228 22.0014 36.5228 22.0022C36.4574 22.5196 36.0659 23.0276 35.3685 23.4213L29.8776 26.5223" fill="url(#paint1_linear_10845_7354)"/>
<path d="M12.6574 36.0767C12.2763 36.0767 11.9437 35.9535 11.6843 35.7209L11.6848 35.7205C11.9441 35.9531 12.2771 36.0767 12.6583 36.0767C12.6913 36.0767 12.7249 36.0758 12.759 36.0741C12.7245 36.0758 12.6905 36.0767 12.6574 36.0767V36.0767ZM12.6579 35.9163C12.2767 35.9167 11.9441 35.7932 11.6848 35.5606V35.5603L25.3284 22.0005L29.8773 26.5222L13.8917 35.5491C13.4494 35.7983 13.0303 35.9163 12.6579 35.9163V35.9163ZM11.6809 35.718C11.6568 35.6962 11.6331 35.6731 11.6099 35.6491L11.6809 35.718Z" fill="url(#paint2_linear_10845_7354)"/>
<path d="M25.3281 22.0005L11.6831 8.43984C11.9425 8.20769 12.2746 8.08455 12.6553 8.08455C13.0288 8.08455 13.4482 8.20298 13.8913 8.45265L29.8765 17.4795L25.3281 22.0005V22.0005ZM29.9794 17.3774L13.8913 8.29284C13.4482 8.04307 13.0288 7.92464 12.6553 7.92464C12.6536 7.92464 12.6524 7.92464 12.6506 7.92464C12.6528 7.92464 12.6545 7.92464 12.6571 7.92464C13.0297 7.92464 13.4486 8.04263 13.8913 8.2924L29.9794 17.3774V17.3774Z" fill="url(#paint3_linear_10845_7354)"/>
<path d="M12.7591 36.0742C13.1053 36.0545 13.4887 35.9361 13.8918 35.7091L29.8761 26.6826L13.8918 35.7091C13.489 35.9365 13.1053 36.0545 12.7591 36.0742V36.0742ZM11.6844 35.721L11.681 35.7181C11.6822 35.7189 11.6835 35.7201 11.6844 35.721ZM11.61 35.6492L11.603 35.6424V35.642C11.6057 35.6445 11.6078 35.647 11.61 35.6492Z" fill="white"/>
<path d="M29.876 26.6826L29.9797 26.6241L29.876 26.6826Z" fill="url(#paint4_linear_10845_7354)"/>
<path d="M12.6584 36.0767C12.2772 36.0767 11.9442 35.9531 11.6849 35.7205L11.6844 35.7209C11.6835 35.7201 11.6822 35.7189 11.681 35.718L11.61 35.6491C11.6078 35.6469 11.6057 35.6444 11.603 35.6419L11.6849 35.5606C11.9442 35.7932 12.2768 35.9167 12.658 35.9163C13.0304 35.9163 13.4495 35.7983 13.8918 35.5491L29.8774 26.5222L29.9798 26.624L29.8761 26.6826L13.8918 35.709C13.4887 35.936 13.1053 36.0544 12.7591 36.0741C12.725 36.0758 12.6914 36.0767 12.6584 36.0767" fill="url(#paint5_linear_10845_7354)"/>
<path d="M11.6029 35.6426C11.2825 35.3056 11.0933 34.7823 11.0933 34.1047V34.1042C11.0933 34.7823 11.2825 35.3051 11.6029 35.6421V35.6426" fill="white"/>
<path d="M11.6029 35.6421C11.2825 35.3051 11.0933 34.7822 11.0933 34.1042V33.9447C11.0933 34.6223 11.2825 35.1456 11.6029 35.4826L11.6848 35.5604L11.6029 35.6421" fill="url(#paint6_linear_10845_7354)"/>
<path d="M11.603 35.6421L11.6849 35.5604V35.5608L11.603 35.6421" fill="url(#paint7_linear_10845_7354)"/>
<path d="M36.3955 22.5669C36.4802 22.3821 36.5228 22.1924 36.5228 22.0025C36.5228 22.0021 36.5228 22.0017 36.5228 22.0017C36.5228 22.1919 36.4802 22.3817 36.3955 22.5669Z" fill="white"/>
<path d="M29.9799 26.624L29.8774 26.5222L35.3684 23.4212C36.0658 23.0275 36.4573 22.5195 36.5227 22.0022C36.5227 22.1921 36.4801 22.3818 36.3954 22.5666C36.2246 22.939 35.8822 23.2909 35.3684 23.5811L29.9799 26.624Z" fill="url(#paint8_linear_10845_7354)"/>
<path d="M36.5228 22.0005V22.0001C36.5223 21.4275 36.1373 20.8551 35.3685 20.4206L29.9799 17.3777H29.9795L29.9799 17.3774L35.3685 20.4202C36.1382 20.8546 36.5237 21.4279 36.5228 22.0005Z" fill="white"/>
<path d="M36.5227 22.0005C36.4572 21.4819 36.0657 20.9744 35.3684 20.5806L29.877 17.48L29.9794 17.3782H29.9798L35.3684 20.4211C36.1372 20.8555 36.5222 21.4279 36.5227 22.0005Z" fill="url(#paint9_linear_10845_7354)"/>
<path d="M11.0933 9.89209C11.0933 9.89165 11.0933 9.89121 11.0933 9.89078C11.0933 9.89121 11.0933 9.89165 11.0933 9.89209ZM11.098 9.71423C11.098 9.71335 11.098 9.71248 11.098 9.7116C11.098 9.71248 11.098 9.71335 11.098 9.71423ZM11.0983 9.70909C11.0983 9.70733 11.0983 9.70569 11.0983 9.70394C11.0983 9.70569 11.0983 9.70733 11.0983 9.70909ZM11.0983 9.70263C11.1621 8.57822 11.7773 7.92873 12.6475 7.9249C12.2702 7.92709 11.9416 8.05022 11.6843 8.28062V8.28018L11.6812 8.28324C11.6542 8.30754 11.6284 8.33326 11.6029 8.35975C11.3139 8.6637 11.1315 9.11903 11.0983 9.70263Z" fill="white"/>
<path d="M11.0933 10.0581V9.8982C11.0933 9.89601 11.0933 9.89426 11.0933 9.89218C11.0933 9.89174 11.0933 9.8913 11.0933 9.89086C11.0933 9.83055 11.0949 9.77156 11.098 9.71432C11.098 9.71344 11.098 9.71257 11.098 9.71169C11.098 9.71092 11.098 9.71005 11.0983 9.70917C11.0983 9.70742 11.0983 9.70578 11.0983 9.70403C11.0983 9.70359 11.0983 9.70315 11.0983 9.70271C11.1315 9.11911 11.3139 8.66379 11.6029 8.35984L11.6835 8.44018C11.3139 8.7716 11.0933 9.32433 11.0933 10.0581V10.0581ZM11.6812 8.28333L11.6843 8.28026C11.6835 8.28158 11.6821 8.28245 11.6812 8.28333Z" fill="url(#paint10_linear_10845_7354)"/>
<path d="M29.877 17.48L13.8918 8.45309C13.4486 8.20342 13.0292 8.085 12.6558 8.085C12.275 8.085 11.9429 8.20813 11.6835 8.44028L11.603 8.35994C11.6285 8.33345 11.6542 8.30773 11.6813 8.28343C11.6822 8.28256 11.6835 8.28168 11.6844 8.28081C11.9417 8.05041 12.2703 7.92727 12.6476 7.92509C12.6485 7.92509 12.6497 7.92509 12.651 7.92509C12.6528 7.92509 12.654 7.92509 12.6558 7.92509C13.0292 7.92509 13.4486 8.04351 13.8918 8.29328L29.9798 17.3779L29.9794 17.3782L29.877 17.48Z" fill="url(#paint11_linear_10845_7354)"/>
<path d="M46.1694 13.0391C46.9545 13.0391 47.3491 12.5547 47.8295 11.4414L49.5991 7.36328H49.0405L47.4662 11.1328H47.4194L45.7827 7.36328H45.2084L47.1655 11.7344C46.9116 12.2422 46.6303 12.543 46.1694 12.543C46.0366 12.543 45.9311 12.5234 45.8764 12.5078V12.9922C45.9194 13.0117 46.0287 13.0391 46.1694 13.0391ZM53.3078 10.2227C53.2062 9.49609 52.593 8.87109 51.6359 8.87109C50.5305 8.87109 49.8 9.6875 49.8 10.9688C49.8 12.2695 50.5305 13.0664 51.6398 13.0664C52.5383 13.0664 53.1984 12.5195 53.3117 11.7422H52.8C52.6828 12.2695 52.257 12.6094 51.6437 12.6094C50.8508 12.6094 50.3273 11.9883 50.3273 10.9688C50.3273 9.96484 50.8469 9.32812 51.6398 9.32812C52.2805 9.32812 52.6906 9.72266 52.8 10.2227H53.3078ZM57.0947 8.9375H53.8173V9.36719H55.1962V13H55.7119V9.36719H57.0947V8.9375ZM58.9362 13.0664C59.5417 13.0664 60.0964 12.7305 60.323 12.2266H60.3347V13H60.8269V10.2188C60.8269 9.39062 60.2448 8.87109 59.3191 8.87109C58.3933 8.87109 57.7956 9.38672 57.737 10.1133H58.237C58.3269 9.62109 58.7097 9.32812 59.3073 9.32812C59.9402 9.32812 60.3112 9.67969 60.3112 10.2656V10.6172L59.0456 10.6953C58.1081 10.7578 57.5886 11.1797 57.5886 11.875C57.5886 12.5859 58.1355 13.0664 58.9362 13.0664ZM59.0417 12.6211C58.4909 12.6211 58.112 12.3164 58.112 11.875C58.112 11.4258 58.4675 11.1484 59.1081 11.1055L60.3112 11.0234V11.4727C60.3112 12.1172 59.7527 12.6211 59.0417 12.6211ZM64.7505 13H65.2661V8.9375H64.7505V10.6797H62.5278V8.9375H62.0083V13H62.5278V11.1094H64.7505V13ZM68.1272 13.0664C69.2327 13.0664 69.9788 12.2578 69.9788 10.9688C69.9788 9.67578 69.2327 8.87109 68.1272 8.87109C67.0256 8.87109 66.2756 9.67578 66.2756 10.9688C66.2756 12.2578 67.0217 13.0664 68.1272 13.0664ZM68.1272 12.6094C67.3303 12.6094 66.803 12 66.803 10.9688C66.803 9.9375 67.3303 9.32812 68.1272 9.32812C68.9241 9.32812 69.4553 9.9375 69.4553 10.9688C69.4553 12 68.9241 12.6094 68.1272 12.6094ZM72.6406 13C73.5156 13 74.043 12.5742 74.043 11.8477C74.043 11.3164 73.6602 10.9648 73.1367 10.9023V10.8789C73.5508 10.7969 73.8477 10.4141 73.8477 9.96875C73.8477 9.33203 73.3828 8.9375 72.6211 8.9375H70.9805V13H72.6406ZM71.5 9.36328H72.5547C73.0547 9.36328 73.3359 9.60156 73.3359 10.0156C73.3359 10.457 73.0352 10.7031 72.4766 10.7031H71.5V9.36328ZM71.5 11.1289H72.5156C73.168 11.1289 73.5312 11.3633 73.5312 11.8359C73.5312 12.3203 73.207 12.5742 72.6133 12.5742H71.5V11.1289ZM75.5681 13L77.8259 9.73828H77.8494V13H78.3689V8.9375H77.8572L75.5994 12.2031H75.5759V8.9375H75.0564V13H75.5681ZM82.5191 8.9375H79.2417V9.36719H80.6206V13H81.1362V9.36719H82.5191V8.9375ZM83.3958 13H84.7903C85.6848 13 86.263 12.4805 86.263 11.6562C86.263 10.832 85.6848 10.3164 84.7903 10.3164H83.9153V8.9375H83.3958V13ZM84.7825 10.7461C85.3684 10.7461 85.7513 11.1055 85.7513 11.6562C85.7513 12.207 85.3723 12.5703 84.7825 12.5703H83.9153V10.7461H84.7825ZM92.4422 10.2227C92.3406 9.49609 91.7273 8.87109 90.7703 8.87109C89.6648 8.87109 88.9344 9.6875 88.9344 10.9688C88.9344 12.2695 89.6648 13.0664 90.7742 13.0664C91.6727 13.0664 92.3328 12.5195 92.4461 11.7422H91.9344C91.8172 12.2695 91.3914 12.6094 90.7781 12.6094C89.9852 12.6094 89.4617 11.9883 89.4617 10.9688C89.4617 9.96484 89.9812 9.32812 90.7742 9.32812C91.4148 9.32812 91.825 9.72266 91.9344 10.2227H92.4422Z" fill="white"/>
<defs>
<linearGradient id="paint0_linear_10845_7354" x1="24.1185" y1="9.64235" x2="5.74995" y2="28.1247" gradientUnits="userSpaceOnUse">
<stop stop-color="#00A0FF"/>
<stop offset="0.00657445" stop-color="#00A1FF"/>
<stop offset="0.2601" stop-color="#00BEFF"/>
<stop offset="0.5122" stop-color="#00D2FF"/>
<stop offset="0.7604" stop-color="#00DFFF"/>
<stop offset="1" stop-color="#00E3FF"/>
</linearGradient>
<linearGradient id="paint1_linear_10845_7354" x1="37.3725" y1="22.0012" x2="10.7242" y2="22.0012" gradientUnits="userSpaceOnUse">
<stop stop-color="#FFE000"/>
<stop offset="0.4087" stop-color="#FFBD00"/>
<stop offset="0.7754" stop-color="#FFA500"/>
<stop offset="1" stop-color="#FF9C00"/>
</linearGradient>
<linearGradient id="paint2_linear_10845_7354" x1="27.4523" y1="24.5128" x2="2.54324" y2="49.5761" gradientUnits="userSpaceOnUse">
<stop stop-color="#FF3A44"/>
<stop offset="1" stop-color="#C31162"/>
</linearGradient>
<linearGradient id="paint3_linear_10845_7354" x1="8.14649" y1="0.301915" x2="19.2694" y2="11.4937" gradientUnits="userSpaceOnUse">
<stop stop-color="#32A071"/>
<stop offset="0.0685" stop-color="#2DA771"/>
<stop offset="0.4762" stop-color="#15CF74"/>
<stop offset="0.8009" stop-color="#06E775"/>
<stop offset="1" stop-color="#00F076"/>
</linearGradient>
<linearGradient id="paint4_linear_10845_7354" x1="37.3722" y1="22.0012" x2="10.724" y2="22.0012" gradientUnits="userSpaceOnUse">
<stop stop-color="#CCB300"/>
<stop offset="0.4087" stop-color="#CC9700"/>
<stop offset="0.7754" stop-color="#CC8400"/>
<stop offset="1" stop-color="#CC7D00"/>
</linearGradient>
<linearGradient id="paint5_linear_10845_7354" x1="27.4525" y1="24.5128" x2="2.54335" y2="49.5761" gradientUnits="userSpaceOnUse">
<stop stop-color="#CC2E36"/>
<stop offset="1" stop-color="#9C0E4E"/>
</linearGradient>
<linearGradient id="paint6_linear_10845_7354" x1="24.1185" y1="9.64216" x2="5.7499" y2="28.1245" gradientUnits="userSpaceOnUse">
<stop stop-color="#008DE0"/>
<stop offset="0.00657445" stop-color="#008DE0"/>
<stop offset="0.2601" stop-color="#00A7E0"/>
<stop offset="0.5122" stop-color="#00B8E0"/>
<stop offset="0.7604" stop-color="#00C4E0"/>
<stop offset="1" stop-color="#00C7E0"/>
</linearGradient>
<linearGradient id="paint7_linear_10845_7354" x1="27.4531" y1="24.5122" x2="2.54221" y2="49.5765" gradientUnits="userSpaceOnUse">
<stop stop-color="#E0333C"/>
<stop offset="1" stop-color="#AB0F56"/>
</linearGradient>
<linearGradient id="paint8_linear_10845_7354" x1="37.3724" y1="22.0012" x2="10.7241" y2="22.0012" gradientUnits="userSpaceOnUse">
<stop stop-color="#E0C500"/>
<stop offset="0.4087" stop-color="#E0A600"/>
<stop offset="0.7754" stop-color="#E09100"/>
<stop offset="1" stop-color="#E08900"/>
</linearGradient>
<linearGradient id="paint9_linear_10845_7354" x1="37.3723" y1="22.0016" x2="10.7241" y2="22.0016" gradientUnits="userSpaceOnUse">
<stop stop-color="#FFE840"/>
<stop offset="0.4087" stop-color="#FFCE40"/>
<stop offset="0.7754" stop-color="#FFBC40"/>
<stop offset="1" stop-color="#FFB540"/>
</linearGradient>
<linearGradient id="paint10_linear_10845_7354" x1="24.1185" y1="9.6424" x2="5.74997" y2="28.1247" gradientUnits="userSpaceOnUse">
<stop stop-color="#40B8FF"/>
<stop offset="0.00657445" stop-color="#40B9FF"/>
<stop offset="0.2601" stop-color="#40CEFF"/>
<stop offset="0.5122" stop-color="#40DDFF"/>
<stop offset="0.7604" stop-color="#40E7FF"/>
<stop offset="1" stop-color="#40EAFF"/>
</linearGradient>
<linearGradient id="paint11_linear_10845_7354" x1="8.14691" y1="0.302358" x2="19.2698" y2="11.4942" gradientUnits="userSpaceOnUse">
<stop stop-color="#65B895"/>
<stop offset="0.0685" stop-color="#62BD95"/>
<stop offset="0.4762" stop-color="#50DB97"/>
<stop offset="0.8009" stop-color="#44ED98"/>
<stop offset="1" stop-color="#40F498"/>
</linearGradient>
</defs>
</svg>
