<svg width="23" height="25" viewBox="0 0 23 25" fill="none" xmlns="http://www.w3.org/2000/svg">
<path d="M1.02612 24.5146L0.955907 24.4479C0.680908 24.1587 0.518555 23.7097 0.518555 23.1282V23.265V2.49368C0.518555 2.4918 0.518555 2.49039 0.518555 2.48889C0.518555 2.49067 0.518555 2.49218 0.518555 2.49405V2.63127C0.518555 2.00163 0.707841 1.52734 1.02499 1.24295L12.7336 12.8792L1.02612 24.5146ZM0.518555 2.48776C0.518555 2.43601 0.519972 2.38577 0.522618 2.33627C0.519972 2.38539 0.518555 2.43601 0.518555 2.48776ZM0.522618 2.33402C0.522618 2.33336 0.522617 2.33261 0.522901 2.33186C0.522617 2.33261 0.522618 2.33336 0.522618 2.33402ZM0.522901 2.32744C0.522901 2.32707 0.522901 2.32669 0.522901 2.32631C0.522901 2.32669 0.522901 2.32707 0.522901 2.32744Z" fill="url(#paint0_linear_10814_24148)"/>
<path d="M16.6361 16.8965L16.7252 16.8462L21.349 14.2352C21.7899 13.9861 22.0837 13.6841 22.2303 13.3646C22.0841 13.6841 21.7902 13.9865 21.349 14.2355L16.7252 16.8466L16.6361 16.8965ZM16.6373 16.7589L12.7339 12.8789L16.6369 8.9995L21.349 11.6601C21.9474 11.998 22.2834 12.4335 22.3395 12.8785C22.3395 12.8789 22.3395 12.8796 22.3395 12.8803C22.2834 13.3242 21.9474 13.7601 21.349 14.098L16.6373 16.7589Z" fill="url(#paint1_linear_10814_24148)"/>
<path d="M1.86032 24.957C1.53325 24.957 1.24786 24.8514 1.02531 24.6518L1.02569 24.6514C1.24824 24.851 1.53401 24.957 1.86108 24.957C1.88943 24.957 1.91825 24.9563 1.94746 24.9549C1.91788 24.9563 1.88867 24.957 1.86032 24.957ZM1.8607 24.8194C1.53363 24.8198 1.24824 24.7138 1.02569 24.5142V24.5139L12.7331 12.8784L16.6365 16.7585L2.9194 24.5043C2.53989 24.7182 2.18031 24.8194 1.8607 24.8194ZM1.02238 24.6493C1.00168 24.6306 0.981366 24.6107 0.961426 24.5902L1.02238 24.6493Z" fill="url(#paint2_linear_10814_24148)"/>
<path d="M12.7344 12.8789L1.02588 1.24268C1.24843 1.04348 1.53345 0.937816 1.86014 0.937816C2.18059 0.937816 2.54046 1.03944 2.92073 1.25367L16.6374 8.99954L12.7344 12.8789ZM16.7257 8.91191L2.92073 1.11654C2.54046 0.902219 2.18059 0.800599 1.86014 0.800599C1.85863 0.800599 1.85759 0.800599 1.85608 0.800599C1.85797 0.800599 1.85938 0.800599 1.86165 0.800599C2.18135 0.800599 2.54083 0.901843 2.92073 1.11617L16.7257 8.91191Z" fill="url(#paint3_linear_10814_24148)"/>
<path d="M1.94804 24.9551C2.24515 24.9382 2.57411 24.8366 2.91999 24.6418L16.6359 16.8963L2.91999 24.6418C2.57439 24.8369 2.24515 24.9382 1.94804 24.9551ZM1.02589 24.652L1.02296 24.6495C1.024 24.6502 1.02514 24.6512 1.02589 24.652ZM0.962009 24.5904L0.956055 24.5846V24.5842C0.958323 24.5863 0.960119 24.5885 0.962009 24.5904Z" fill="#07152A"/>
<path d="M16.6362 16.8965L16.7253 16.8462L16.6362 16.8965Z" fill="url(#paint4_linear_10814_24148)"/>
<path d="M1.86166 24.957C1.53459 24.957 1.24882 24.851 1.02627 24.6514L1.02589 24.6518C1.02514 24.651 1.024 24.65 1.02296 24.6493L0.962009 24.5902C0.960119 24.5883 0.958323 24.5861 0.956055 24.584L1.02627 24.5142C1.24882 24.7138 1.53422 24.8198 1.86129 24.8194C2.18089 24.8194 2.54047 24.7182 2.91999 24.5043L16.6371 16.7585L16.725 16.8458L16.636 16.8961L2.91999 24.6416C2.57411 24.8363 2.24515 24.938 1.94804 24.9549C1.91884 24.9563 1.89001 24.957 1.86166 24.957Z" fill="url(#paint5_linear_10814_24148)"/>
<defs>
<linearGradient id="paint0_linear_10814_24148" x1="11.6954" y1="2.27456" x2="-4.06648" y2="18.134" gradientUnits="userSpaceOnUse">
<stop stop-color="#00A0FF"/>
<stop offset="0.00657445" stop-color="#00A1FF"/>
<stop offset="0.2601" stop-color="#00BEFF"/>
<stop offset="0.5122" stop-color="#00D2FF"/>
<stop offset="0.7604" stop-color="#00DFFF"/>
<stop offset="1" stop-color="#00E3FF"/>
</linearGradient>
<linearGradient id="paint1_linear_10814_24148" x1="23.0686" y1="12.8794" x2="0.202033" y2="12.8794" gradientUnits="userSpaceOnUse">
<stop stop-color="#FFE000"/>
<stop offset="0.4087" stop-color="#FFBD00"/>
<stop offset="0.7754" stop-color="#FFA500"/>
<stop offset="1" stop-color="#FF9C00"/>
</linearGradient>
<linearGradient id="paint2_linear_10814_24148" x1="14.5557" y1="15.0342" x2="-6.81853" y2="36.5407" gradientUnits="userSpaceOnUse">
<stop stop-color="#FF3A44"/>
<stop offset="1" stop-color="#C31162"/>
</linearGradient>
<linearGradient id="paint3_linear_10814_24148" x1="-2.00885" y1="-5.74037" x2="7.53559" y2="3.86317" gradientUnits="userSpaceOnUse">
<stop stop-color="#32A071"/>
<stop offset="0.0685" stop-color="#2DA771"/>
<stop offset="0.4762" stop-color="#15CF74"/>
<stop offset="0.8009" stop-color="#06E775"/>
<stop offset="1" stop-color="#00F076"/>
</linearGradient>
<linearGradient id="paint4_linear_10814_24148" x1="23.0687" y1="12.8794" x2="0.20217" y2="12.8794" gradientUnits="userSpaceOnUse">
<stop stop-color="#CCB300"/>
<stop offset="0.4087" stop-color="#CC9700"/>
<stop offset="0.7754" stop-color="#CC8400"/>
<stop offset="1" stop-color="#CC7D00"/>
</linearGradient>
<linearGradient id="paint5_linear_10814_24148" x1="14.5563" y1="15.0342" x2="-6.81794" y2="36.5407" gradientUnits="userSpaceOnUse">
<stop stop-color="#CC2E36"/>
<stop offset="1" stop-color="#9C0E4E"/>
</linearGradient>
</defs>
</svg>
