<svg width="32" height="32" viewBox="0 0 32 32" fill="none" xmlns="http://www.w3.org/2000/svg">
<g clip-path="url(#clip0_9984_23466)">
<path d="M18.0232 35.3101C27.5707 35.3101 35.3106 27.5703 35.3106 18.0227C35.3106 8.47516 27.5707 0.735352 18.0232 0.735352C8.47565 0.735352 0.73584 8.47516 0.73584 18.0227C0.73584 27.5703 8.47565 35.3101 18.0232 35.3101Z" fill="white"/>
<path d="M8.09216 8.09167C12.1549 8.09167 15.4485 6.4449 15.4485 4.41351C15.4485 2.38212 12.1549 0.735352 8.09216 0.735352C4.02938 0.735352 0.73584 2.38212 0.73584 4.41351C0.73584 6.4449 4.02938 8.09167 8.09216 8.09167Z" stroke="#002A66" stroke-linecap="round" stroke-linejoin="round"/>
<path d="M0.73584 4.41406C0.73584 4.41406 0.73584 7.53211 0.73584 9.56349C0.73584 11.5949 4.02938 13.2416 8.09216 13.2416C12.1549 13.2416 15.4485 11.5949 15.4485 9.56349C15.4485 8.36029 15.4485 4.41406 15.4485 4.41406" stroke="#002A66" stroke-linecap="round" stroke-linejoin="round"/>
<path d="M0.73584 9.56348C0.73584 9.56348 0.73584 12.6815 0.73584 14.7129C0.73584 16.7443 4.02938 18.3911 8.09216 18.3911C12.1549 18.3911 15.4485 16.7443 15.4485 14.7129C15.4485 13.5097 15.4485 9.56348 15.4485 9.56348" stroke="#002A66" stroke-linecap="round" stroke-linejoin="round"/>
<path d="M0.73584 14.7129C0.73584 14.7129 0.73584 17.8309 0.73584 19.8623C0.73584 21.8937 4.02938 23.5405 8.09216 23.5405C12.1549 23.5405 15.4485 21.8937 15.4485 19.8623C15.4485 18.6591 15.4485 14.7129 15.4485 14.7129" stroke="#002A66" stroke-linecap="round" stroke-linejoin="round"/>
<path d="M0.73584 19.8623C0.73584 19.8623 0.73584 22.9804 0.73584 25.0117C0.73584 27.0431 4.02938 28.6899 8.09216 28.6899C12.1549 28.6899 15.4485 27.0431 15.4485 25.0117C15.4485 23.8085 15.4485 19.8623 15.4485 19.8623" stroke="#002A66" stroke-linecap="round" stroke-linejoin="round"/>
<path d="M22.8046 18.3905C26.8673 18.3905 30.1609 16.7437 30.1609 14.7123C30.1609 12.681 26.8673 11.0342 22.8046 11.0342C18.7418 11.0342 15.4482 12.681 15.4482 14.7123C15.4482 16.7437 18.7418 18.3905 22.8046 18.3905Z" stroke="#002A66" stroke-linecap="round" stroke-linejoin="round"/>
<path d="M15.4482 14.7129C15.4482 14.7129 15.4482 17.8309 15.4482 19.8623C15.4482 21.8937 18.7418 23.5405 22.8046 23.5405C26.8673 23.5405 30.1609 21.8937 30.1609 19.8623C30.1609 18.6591 30.1609 14.7129 30.1609 14.7129" stroke="#002A66" stroke-linecap="round" stroke-linejoin="round"/>
<path d="M15.4482 19.8623C15.4482 19.8623 15.4482 22.9804 15.4482 25.0117C15.4482 27.0431 18.7418 28.6899 22.8046 28.6899C26.8673 28.6899 30.1609 27.0431 30.1609 25.0117C30.1609 23.8085 30.1609 19.8623 30.1609 19.8623" stroke="#002A66" stroke-linecap="round" stroke-linejoin="round"/>
</g>
<defs>
<clipPath id="clip0_9984_23466">
<rect width="32" height="32" fill="white"/>
</clipPath>
</defs>
</svg>
