<svg width="32" height="34" viewBox="0 0 32 34" fill="none" xmlns="http://www.w3.org/2000/svg">
<path d="M28.0983 22.2943C27.9955 21.6779 28.2695 21.3013 27.8243 20.5137C27.5161 20.1713 27.1395 19.9658 26.6943 19.8631C26.2834 19.7604 26.1464 19.6576 25.9752 19.3837V4.11143C25.9752 2.60475 24.7425 1.40625 23.27 1.40625C23.27 1.40625 13.1684 1.40625 9.81263 1.40625C9.64142 1.40625 9.50445 1.47474 9.40172 1.57746C7.96353 3.01566 4.95017 6.02902 3.54621 7.43297C3.44349 7.5357 3.375 7.70691 3.375 7.84388V26.2322C3.375 27.7389 4.60774 28.9374 6.08018 28.9374H18.8185V32.8068C18.8185 33.252 19.2636 33.5259 19.6745 33.3547L23.2015 31.7453L26.7285 33.3547C27.1395 33.5259 27.5846 33.252 27.5846 32.8068V27.5335C27.6873 27.465 27.7558 27.3622 27.8243 27.2595C28.3037 26.4719 27.9955 26.0953 28.0983 25.4789C28.3722 24.9653 28.8174 24.7598 28.9201 23.8695C28.8174 23.0134 28.338 22.808 28.0983 22.2943ZM9.19626 3.42657V5.72083C9.19626 6.5769 8.51141 7.22751 7.68959 7.22751H5.39532L9.19626 3.42657ZM6.04593 27.7732C5.18986 27.7732 4.53925 27.0883 4.53925 26.2665V8.46025H7.68959C9.19627 8.46025 10.3948 7.22751 10.3948 5.75508V2.60475H23.27C24.1261 2.60475 24.7767 3.2896 24.7767 4.11143V18.3906C23.9549 18.3222 23.7837 18.6303 23.2015 18.6988C22.5852 18.6303 22.3112 18.2194 21.4209 18.4249C20.5991 18.7673 20.5649 19.281 20.1539 19.6919C19.6403 19.9658 19.1609 19.8288 18.5788 20.5137C18.0994 21.3013 18.4076 21.6779 18.2706 22.2943C17.9966 22.808 17.5515 23.0134 17.4488 23.9037C17.5173 24.794 17.9966 24.9995 18.2706 25.5131C18.3733 26.1295 18.0994 26.5062 18.5445 27.2938C18.613 27.3965 18.7157 27.465 18.7842 27.5677V27.8074L6.04593 27.7732ZM23.4412 30.5468C23.27 30.4783 23.0988 30.4783 22.9618 30.5468L20.017 31.8823V28.0129C20.4621 28.1841 20.5649 29.0059 21.4209 29.3483C22.277 29.5538 22.5852 29.1429 23.2015 29.0744C23.7152 29.1429 24.2973 29.5538 24.9822 29.3483C25.8725 29.0059 25.9067 28.1841 26.3861 28.0129V31.8823L23.4412 30.5468ZM26.9682 25.1365C26.797 25.8213 27.1052 26.1637 26.8655 26.5747C26.7285 26.7801 26.1122 26.7459 25.53 27.1225C24.9822 27.5677 24.7767 28.1841 24.6055 28.2183C24.2288 28.2526 23.9549 27.8759 23.2015 27.8759C22.4482 27.8759 22.1743 28.2526 21.7976 28.2183C21.6264 28.1841 21.3524 27.4992 20.8388 27.1225C20.5991 26.9513 20.3252 26.8144 20.017 26.7801C19.9485 26.7459 19.5718 26.6431 19.5376 26.5747C19.3664 26.3007 19.6403 25.924 19.4348 25.1365C19.1267 24.3489 18.6815 24.2462 18.6815 23.9037C18.6815 23.5613 19.1267 23.4928 19.4348 22.671C19.5033 22.3628 19.5376 22.0546 19.5033 21.7464C19.4691 21.5752 19.4348 21.3698 19.5376 21.2328C19.6403 21.0958 19.8458 21.0616 20.017 21.0273C20.6333 20.9246 21.147 20.5479 21.4552 20.0001C21.5579 19.8631 21.7291 19.5891 21.7976 19.5891C22.1743 19.5549 22.4482 19.9316 23.2015 19.9316C23.9549 19.9316 24.2973 19.5207 24.6055 19.5891C24.7767 19.6234 24.9479 20.0001 24.9822 20.0343C25.0849 20.2398 25.3246 20.5137 25.5643 20.6849C25.804 20.8561 26.1122 20.9588 26.3861 21.0273C26.5573 21.0616 26.7628 21.0958 26.8655 21.2328C27.1737 21.6437 26.797 21.9519 26.9682 22.671C27.2422 23.3901 27.7216 23.3901 27.7216 23.9037C27.7216 24.3489 27.2079 24.4516 26.9682 25.1365Z" fill="#002A66"/>
<path d="M17.5856 6.47395H20.7359C21.0784 6.47395 21.3523 6.20001 21.3523 5.85758C21.3523 5.51515 21.0784 5.24121 20.7359 5.24121H17.5856C17.2432 5.24121 16.9692 5.51515 16.9692 5.85758C16.9692 6.20001 17.2432 6.47395 17.5856 6.47395Z" fill="#002A66"/>
<path d="M8.54557 11.6448H20.7017C21.0442 11.6448 21.3181 11.3709 21.3181 11.0285C21.3181 10.6861 21.0442 10.4121 20.7017 10.4121H8.54557C8.20314 10.4121 7.9292 10.6861 7.9292 11.0285C7.9292 11.3709 8.23738 11.6448 8.54557 11.6448Z" fill="#002A66"/>
<path d="M8.54557 15.7884H20.7017C21.0442 15.7884 21.3181 15.5145 21.3181 15.172C21.3181 14.8296 21.0442 14.5557 20.7017 14.5557H8.54557C8.20314 14.5557 7.9292 14.8296 7.9292 15.172C7.9292 15.5145 8.23738 15.7884 8.54557 15.7884Z" fill="#002A66"/>
<path d="M16.1132 18.7334H8.54557C8.20314 18.7334 7.9292 19.0073 7.9292 19.3498C7.9292 19.6922 8.20314 19.9661 8.54557 19.9661H16.1132C16.4556 19.9661 16.7296 19.6922 16.7296 19.3498C16.7296 19.0073 16.4556 18.7334 16.1132 18.7334Z" fill="#002A66"/>
<path d="M14.6408 22.8076H8.54557C8.20314 22.8076 7.9292 23.0816 7.9292 23.424C7.9292 23.7664 8.20314 24.0404 8.54557 24.0404H14.6408C14.9832 24.0404 15.2571 23.7664 15.2571 23.424C15.2571 23.0816 14.9832 22.8076 14.6408 22.8076Z" fill="#002A66"/>
</svg>
