<svg width="32" height="32" viewBox="0 0 32 32" fill="none" xmlns="http://www.w3.org/2000/svg">
<path d="M15.4667 8.53307C17.5286 8.53307 19.2001 6.86159 19.2001 4.79974C19.2001 2.73788 17.5286 1.06641 15.4667 1.06641C13.4049 1.06641 11.7334 2.73788 11.7334 4.79974C11.7334 6.86159 13.4049 8.53307 15.4667 8.53307Z" stroke="#002A66" stroke-linecap="round" stroke-linejoin="round"/>
<path d="M17.7332 12.7998H13.1999C12.4982 12.7998 12.1474 12.7998 11.8519 12.8272C8.98209 13.0932 6.71164 15.2301 6.42899 17.9311C6.3999 18.2092 6.3999 18.5394 6.3999 19.1998H24.5332C24.5332 18.5394 24.5332 18.2092 24.5041 17.9311C24.2215 15.2301 21.951 13.0932 19.0812 12.8272C18.7857 12.7998 18.4349 12.7998 17.7332 12.7998Z" stroke="#002A66" stroke-linecap="round" stroke-linejoin="round"/>
<path d="M28.6936 18.1338C30.1135 18.9889 30.9336 19.9981 30.9336 21.079C30.9336 24.1652 24.2477 26.6671 16.0002 26.6671C7.75277 26.6671 1.06689 24.1652 1.06689 21.079C1.06689 19.9981 1.88694 18.9889 3.30689 18.1338" stroke="#002A66" stroke-linecap="round" stroke-linejoin="round"/>
<path d="M11.7334 23.4668L16.0001 27.2001L11.7334 30.9335" stroke="#002A66" stroke-linecap="round" stroke-linejoin="round"/>
</svg>
