<svg width="32" height="32" viewBox="0 0 32 32" fill="none" xmlns="http://www.w3.org/2000/svg">
<path d="M15.4483 10.8094C18.2922 10.8094 20.5977 8.55095 20.5977 5.76504C20.5977 2.97913 18.2922 0.720703 15.4483 0.720703C12.6043 0.720703 10.2988 2.97913 10.2988 5.76504C10.2988 8.55095 12.6043 10.8094 15.4483 10.8094Z" stroke="#002A66" stroke-linecap="round" stroke-linejoin="round"/>
<path d="M0.73584 27.3834C0.73584 21.0156 6.66423 15.8535 13.9772 15.8535" stroke="#002A66" stroke-linecap="round" stroke-linejoin="round"/>
<path d="M21.2228 18.0156C19.6586 18.0156 18.3906 19.4631 18.3906 21.2486C18.3906 24.4815 21.7378 27.4206 23.5401 28.1043C25.3423 27.4206 28.6895 24.4815 28.6895 21.2486C28.6895 19.4631 27.4215 18.0156 25.8573 18.0156C24.8994 18.0156 24.0526 18.5585 23.5401 19.3893C23.0275 18.5585 22.1807 18.0156 21.2228 18.0156Z" stroke="#002A66" stroke-linecap="round" stroke-linejoin="round"/>
</svg>
