<svg width="827" height="329" viewBox="0 0 827 329" fill="none" xmlns="http://www.w3.org/2000/svg">
<path d="M248.793 327.351L249.036 328H249.729H268.899H270.35L269.833 326.644L146.018 1.64399L145.773 1H145.083H127.041H126.352L126.107 1.64342L2.06573 326.643L1.54798 328H3H22.3955H23.09L23.3326 327.349L63.4598 219.667H208.441L248.793 327.351ZM552.102 327.351L552.346 328H553.039H572.209H573.66L573.143 326.644L449.328 1.64399L449.082 1H448.393H430.351H429.662L429.417 1.64342L305.376 326.643L304.858 328H306.31H325.705H326.4L326.642 327.349L366.77 219.667H511.75L552.102 327.351ZM713.265 87.5856V188.162H620.219H619.219V189.162V205.604V206.604H620.219H713.265V307.18V308.18H714.265H730.954H731.954V307.18V206.604H825H826V205.604V189.162V188.162H825H731.954V87.5856V86.5856H730.954H714.265H713.265V87.5856ZM70.0736 201.676L135.95 26.538L202.049 201.676H70.0736ZM373.383 201.676L439.26 26.538L505.359 201.676H373.383Z" stroke="#D3D6DD" stroke-width="2"/>
</svg>
